####
#
# OBJ File Generated by Meshlab
#
####
# Object horse_cage.obj
#
# Vertices: 98
# Faces: 192
#
####
vn -0.921971 -0.175725 0.345094
v -0.413702 0.254521 0.106634
vn -0.573744 0.242385 -0.782348
v -0.375282 0.282217 0.051339
vn -0.747995 -0.144591 0.647763
v -0.363737 0.377012 -0.044232
vn -0.803742 0.308800 -0.508567
v -0.359292 0.399594 -0.111147
vn -0.580730 0.754336 -0.306153
v -0.350294 -0.008914 0.081777
vn -0.655420 -0.513676 -0.553680
v -0.342128 -0.099215 0.073216
vn -0.567960 0.091566 0.817947
v -0.340222 -0.063106 0.155257
vn 0.084629 -0.872919 -0.480468
v -0.339138 0.207106 0.050730
vn 0.177976 -0.360175 0.915750
v -0.328655 0.253528 0.133413
vn -0.109316 -0.759711 -0.641007
v -0.319392 0.337446 -0.126889
vn -0.291148 -0.834481 0.467841
v -0.301621 -0.111498 0.129535
vn -0.787982 -0.278368 -0.549178
v -0.292554 -0.036640 -0.144688
vn 0.252781 -0.749708 0.611588
v -0.290105 0.356987 -0.056451
vn -0.669631 0.390366 0.631829
v -0.284851 0.004033 -0.073084
vn -0.251274 0.749759 -0.612146
v -0.275485 0.465527 -0.117145
vn -0.394622 0.908662 0.136411
v -0.267461 0.419321 0.092679
vn -0.596949 -0.580258 0.554034
v -0.263249 -0.028935 -0.080362
vn -0.057418 0.698047 0.713746
v -0.253759 0.458582 -0.053149
vn 0.253008 -0.323359 -0.911826
v -0.239662 0.424049 -0.111024
vn -0.034882 -0.232407 0.971993
v -0.239083 0.350531 0.107521
vn 0.003794 0.857843 -0.513897
v -0.234496 0.039225 -0.145977
vn -0.100599 -0.819730 -0.563846
v -0.230781 0.343502 0.077218
vn 0.720758 -0.427239 0.545870
v -0.226981 0.399190 -0.057860
vn -0.294762 0.147764 -0.944077
v -0.226631 0.375297 0.065532
vn -0.625023 -0.732204 0.270598
v -0.215315 0.402251 -0.074923
vn -0.165741 -0.169811 -0.971439
v -0.212421 0.424828 -0.111637
vn 0.128849 0.973905 -0.186836
v -0.151109 0.484728 -0.089864
vn -0.239520 0.450209 0.860199
v -0.147158 0.440113 -0.049633
vn -0.875775 -0.452520 -0.168061
v -0.122630 0.229798 -0.012487
vn -0.239556 -0.804966 0.542810
v -0.102664 -0.163875 0.109856
vn -0.402248 -0.819125 -0.408938
v -0.102164 -0.178899 -0.094772
vn -0.353377 -0.561932 -0.747902
v -0.092273 -0.151266 0.064825
vn -0.492319 -0.578814 0.650074
v -0.083094 -0.173742 -0.058086
vn -0.358809 0.925088 0.124370
v -0.078770 0.384102 0.006334
vn -0.442747 0.373051 -0.815358
v -0.073048 -0.106481 0.060686
vn 0.080998 0.118827 -0.989606
v -0.068563 -0.111523 -0.108991
vn -0.263402 0.784311 0.561672
v -0.065288 -0.056288 0.113115
vn -0.418660 -0.225308 0.879750
v -0.062029 0.242702 0.147426
vn -0.331983 -0.195236 -0.922860
v -0.047562 0.229185 -0.113563
vn -0.971217 -0.204970 -0.121348
v -0.045942 0.622061 -0.033752
vn -0.732720 0.596009 0.328474
v -0.040972 -0.079817 -0.045931
vn -0.981073 0.189201 -0.041211
v -0.011216 -0.045351 0.020737
vn -0.513030 0.829799 0.219622
v 0.003699 0.688053 -0.009795
vn 0.123195 0.291500 -0.948605
v 0.008603 0.346038 -0.104086
vn -0.116590 0.409377 0.904885
v 0.008906 0.355270 0.139096
vn -0.489171 0.081486 0.868373
v 0.020249 0.650267 0.013150
vn -0.480397 -0.218545 0.849386
v 0.022497 0.624476 0.009256
vn -0.168400 0.503873 -0.847203
v 0.024332 0.665594 -0.066559
vn -0.128051 -0.286136 -0.949594
v 0.028086 0.629136 -0.063516
vn -0.362546 0.079384 -0.928579
v 0.034379 0.001649 -0.131591
vn -0.432074 -0.901093 0.036656
v 0.055343 -0.206563 0.013320
vn -0.290052 0.016562 0.956868
v 0.073121 -0.009905 0.131397
vn -0.957732 0.200840 -0.205942
v 0.103054 0.535281 -0.001656
vn -0.072568 -0.517847 0.852390
v 0.103522 -0.186161 0.145548
vn -0.653920 0.145164 0.742507
v 0.104778 0.556931 0.035671
vn -0.059085 -0.449474 -0.891337
v 0.107529 -0.182646 -0.126997
vn 0.327153 0.088492 0.940819
v 0.117328 0.235066 0.152013
vn -0.099078 0.025193 -0.994761
v 0.125998 0.558065 -0.041353
vn 0.422818 0.156136 0.892662
v 0.129657 0.313564 0.125764
vn 0.480303 0.186876 -0.856963
v 0.138706 0.242809 -0.078714
vn -0.423337 0.324817 0.845742
v 0.143243 0.656857 0.068752
vn 0.528777 0.126814 -0.839234
v 0.150979 0.310172 -0.043493
vn 0.130108 0.442807 -0.887127
v 0.171051 0.663403 -0.038646
vn -0.003322 0.998182 0.060175
v 0.175566 0.691284 0.019274
vn 0.137677 -0.082227 0.987058
v 0.188237 0.617962 0.076759
vn 0.097534 0.066377 0.993016
v 0.191846 0.579022 0.075504
vn 0.020375 0.514060 0.857512
v 0.193477 0.688129 0.095920
vn 0.039837 0.994655 -0.095262
v 0.195779 0.693317 0.070624
vn 0.788154 -0.247575 0.563489
v 0.201890 0.669579 0.084008
vn 0.807611 0.567803 0.159259
v 0.209696 0.689298 0.077526
vn 0.635731 0.060643 -0.769525
v 0.216286 0.580983 -0.026919
vn -0.257589 0.913359 -0.315315
v 0.217507 0.698897 -0.009312
vn 0.726337 -0.025108 -0.686880
v 0.218446 0.624756 -0.021849
vn 0.514730 0.078944 0.853710
v 0.218607 -0.019521 0.143920
vn 0.051389 0.598969 -0.799122
v 0.220137 0.692237 -0.019803
vn 0.917681 0.260628 0.299891
v 0.222185 0.645119 0.038456
vn 0.640017 0.768105 -0.019840
v 0.232067 0.700550 -0.008283
vn 0.841946 0.045515 -0.537639
v 0.233359 0.679846 -0.018397
vn 0.640489 0.210756 -0.738482
v 0.235346 -0.000733 -0.094965
vn -0.800884 -0.559245 0.214078
v 0.235534 -0.614284 0.023587
vn 0.999548 0.005247 0.029591
v 0.240642 0.223567 0.031685
vn 0.902546 0.121779 0.413015
v 0.242483 0.586294 0.052303
vn 0.615371 0.000464 -0.788238
v 0.247270 -0.086638 -0.084995
vn 0.999588 -0.026941 0.009914
v 0.247837 0.284745 0.030509
vn -0.432381 -0.465842 -0.772035
v 0.249285 -0.344104 -0.053175
vn 0.698946 -0.078484 0.710855
v 0.252306 -0.095538 0.103002
vn -0.779120 -0.483864 0.398556
v 0.258719 -0.317290 -0.012656
vn 0.931410 0.338592 0.133529
v 0.264288 0.012279 0.033320
vn -0.249481 -0.427278 0.869018
v 0.272359 -0.312698 0.034147
vn -0.083990 -0.570646 -0.816890
v 0.273691 -0.611161 -0.020167
vn 0.094903 -0.446972 0.889500
v 0.286925 -0.613061 0.045462
vn 0.975869 0.217803 -0.015528
v 0.301383 -0.065241 0.006312
vn 0.748135 -0.221111 -0.625623
v 0.303014 -0.602315 -0.000403
vn 0.404353 -0.109515 -0.908023
v 0.306427 -0.380976 -0.028590
vn 0.718345 0.006941 0.695653
v 0.308779 -0.600806 0.026434
vn 0.681373 -0.719690 0.133333
v 0.311550 -0.624633 0.023269
vn 0.655017 0.024314 0.755223
v 0.317445 -0.366937 0.011988
vn 0.973424 -0.077540 -0.215484
v 0.338621 -0.387939 -0.012269
# 98 vertices, 0 vertices normals

f 3//3 13//13 23//23
f 18//18 3//3 23//23
f 23//23 13//13 10//10
f 19//19 23//23 10//10
f 10//10 13//13 3//3
f 4//4 10//10 3//3
f 4//4 3//3 18//18
f 15//15 4//4 18//18
f 19//19 10//10 4//4
f 15//15 19//19 4//4
f 46//46 47//47 55//55
f 61//61 46//46 55//55
f 55//55 47//47 40//40
f 53//53 55//55 40//40
f 40//40 47//47 46//46
f 43//43 40//40 46//46
f 43//43 46//46 61//61
f 64//64 43//43 61//61
f 58//58 49//49 48//48
f 63//63 58//58 48//48
f 48//48 49//49 40//40
f 43//43 48//48 40//40
f 40//40 49//49 58//58
f 53//53 40//40 58//58
f 63//63 48//48 43//43
f 64//64 63//63 43//43
f 91//91 95//95 97//97
f 89//89 91//91 97//97
f 97//97 95//95 96//96
f 98//98 97//97 96//96
f 96//96 95//95 91//91
f 80//80 96//96 91//91
f 80//80 91//91 89//89
f 87//87 80//80 89//89
f 94//94 93//93 90//90
f 85//85 94//94 90//90
f 90//90 93//93 96//96
f 80//80 90//90 96//96
f 96//96 93//93 94//94
f 98//98 96//96 94//94
f 85//85 90//90 80//80
f 87//87 85//85 80//80
f 74//74 86//86 92//92
f 88//88 74//74 92//92
f 54//54 86//86 74//74
f 52//52 54//54 74//74
f 52//52 74//74 57//57
f 38//38 52//52 57//57
f 57//57 74//74 88//88
f 81//81 57//57 88//88
f 92//92 83//83 79//79
f 88//88 92//92 79//79
f 79//79 83//83 56//56
f 50//50 79//79 56//56
f 88//88 79//79 60//60
f 81//81 88//88 60//60
f 60//60 79//79 50//50
f 39//39 60//60 50//50
f 51//51 54//54 30//30
f 32//32 51//51 30//30
f 30//30 54//54 52//52
f 37//37 30//30 52//52
f 37//37 52//52 42//42
f 35//35 37//37 42//42
f 42//42 52//52 38//38
f 29//29 42//42 38//38
f 50//50 56//56 31//31
f 36//36 50//50 31//31
f 31//31 56//56 51//51
f 33//33 31//31 51//51
f 39//39 50//50 42//42
f 29//29 39//39 42//42
f 42//42 50//50 36//36
f 41//41 42//42 36//36
f 33//33 51//51 42//42
f 41//41 33//33 42//42
f 42//42 51//51 32//32
f 35//35 42//42 32//32
f 57//57 59//59 45//45
f 38//38 57//57 45//45
f 45//45 59//59 66//66
f 55//55 45//45 66//66
f 66//66 59//59 84//84
f 82//82 66//66 84//84
f 84//84 59//59 57//57
f 81//81 84//84 57//57
f 38//38 45//45 16//16
f 20//20 38//38 16//16
f 16//16 45//45 34//34
f 24//24 16//16 34//34
f 34//34 45//45 55//55
f 53//53 34//34 55//55
f 29//29 38//38 20//20
f 22//22 29//29 20//20
f 44//44 62//62 60//60
f 39//39 44//44 60//60
f 60//60 62//62 84//84
f 81//81 60//60 84//84
f 84//84 62//62 71//71
f 82//82 84//84 71//71
f 71//71 62//62 44//44
f 58//58 71//71 44//44
f 58//58 44//44 34//34
f 53//53 58//58 34//34
f 24//24 34//34 29//29
f 22//22 24//24 29//29
f 12//12 17//17 14//14
f 21//21 12//12 14//14
f 77//77 72//72 64//64
f 76//76 77//77 64//64
f 64//64 72//72 75//75
f 63//63 64//64 75//75
f 75//75 72//72 77//77
f 78//78 75//75 77//77
f 78//78 77//77 76//76
f 73//73 78//78 76//76
f 63//63 75//75 78//78
f 73//73 63//63 78//78
f 70//70 69//69 65//65
f 76//76 70//70 65//65
f 65//65 69//69 67//67
f 61//61 65//65 67//67
f 67//67 69//69 70//70
f 68//68 67//67 70//70
f 68//68 70//70 76//76
f 64//64 68//68 76//76
f 61//61 67//67 68//68
f 64//64 61//61 68//68
f 6//6 11//11 7//7
f 5//5 6//6 7//7
f 55//55 66//66 65//65
f 61//61 55//55 65//65
f 65//65 66//66 82//82
f 76//76 65//65 82//82
f 73//73 71//71 58//58
f 63//63 73//73 58//58
f 82//82 71//71 73//73
f 76//76 82//82 73//73
f 8//8 9//9 1//1
f 2//2 8//8 1//1
f 98//98 94//94 83//83
f 92//92 98//98 83//83
f 97//97 98//98 92//92
f 86//86 97//97 92//92
f 89//89 97//97 86//86
f 54//54 89//89 86//86
f 87//87 89//89 54//54
f 51//51 87//87 54//54
f 85//85 87//87 51//51
f 56//56 85//85 51//51
f 94//94 85//85 56//56
f 83//83 94//94 56//56
f 26//26 27//27 44//44
f 39//39 26//26 44//44
f 25//25 26//26 39//39
f 29//29 25//25 39//39
f 28//28 25//25 29//29
f 34//34 28//28 29//29
f 27//27 28//28 34//34
f 44//44 27//27 34//34
f 19//19 15//15 27//27
f 26//26 19//19 27//27
f 23//23 19//19 26//26
f 25//25 23//23 26//26
f 18//18 23//23 25//25
f 28//28 18//18 25//25
f 15//15 18//18 28//28
f 27//27 15//15 28//28
f 24//24 22//22 8//8
f 2//2 24//24 8//8
f 16//16 24//24 2//2
f 1//1 16//16 2//2
f 20//20 16//16 1//1
f 9//9 20//20 1//1
f 22//22 20//20 9//9
f 8//8 22//22 9//9
f 35//35 32//32 6//6
f 5//5 35//35 6//6
f 37//37 35//35 5//5
f 7//7 37//37 5//5
f 30//30 37//37 7//7
f 11//11 30//30 7//7
f 32//32 30//30 11//11
f 6//6 32//32 11//11
f 33//33 41//41 14//14
f 17//17 33//33 14//14
f 31//31 33//33 17//17
f 12//12 31//31 17//17
f 36//36 31//31 12//12
f 21//21 36//36 12//12
f 41//41 36//36 21//21
f 14//14 41//41 21//21
# 192 faces, 0 coords texture

# End of File
